<svg id="Component_5_1" data-name="Component 5 – 1" xmlns="http://www.w3.org/2000/svg" width="54" height="54" viewBox="0 0 54 54">
  <g id="Ellipse_3" data-name="Ellipse 3" fill="#fff" stroke="#19aaff" stroke-width="2">
    <circle cx="27" cy="27" r="27" stroke="none"/>
    <circle cx="27" cy="27" r="26" fill="none"/>
  </g>
  <path id="Path_65" data-name="Path 65" d="M1701.812,1036.453c-6.88-.174-11.54-5.792-11.54-5.792s-2.374,4.507,1.676,7.414a4.417,4.417,0,0,1-2.368-.62s-.485,4.18,4.284,5.509c0,0-.316.349-2.33.185a5.4,5.4,0,0,0,5.1,3.81s-2.531,2.727-8.051,2.433a16.389,16.389,0,0,0,18.037-.527c3.151-2.191,6.9-8.209,6.382-13.718a9.288,9.288,0,0,0,2.711-2.863s-.73.3-1.487.516a7.984,7.984,0,0,1-1.539.29s2.079-1.437,2.308-3.048a12.762,12.762,0,0,1-3.457,1.324l-.041,0a5.638,5.638,0,0,0-9.6,5.086Z" transform="translate(-1675.101 -1013.238)" fill="#19aaff"/>
</svg>
